# xmcd
#
# Track frame offsets: 
#        150
#        58698
#        76997
#        93485
#        112159
#        127196
#        145439
#        163110
#        182309
#        203037
#        219143
#        239139
#        260223
#
# Disc length: 3707 seconds
#
# Revision: 0
# Processed by: cddbd v1.5.2PL0 Copyright (c) Steve Scherf et al.
# Submitted via: ExactAudioCopy v0.95b4
#
DISCID=c60e790d
DTITLE=Чай Вдвоём - Прости...
DYEAR=2006
DGENRE=Pop
TTITLE0=Video
TTITLE1=Прости
TTITLE2=Москва С.Н.В
TTITLE3=Письма
TTITLE4=Заколдованный Круг
TTITLE5=Падали Звёзды
TTITLE6=Новогодний Поцелуй
TTITLE7=Ты Не Одна
TTITLE8=Отбой
TTITLE9=Заберу Тебя С Собой
TTITLE10=24 Часа
TTITLE11=На Небе Облака
TTITLE12=Я И Ты
EXTD=
EXTT0=
EXTT1=
EXTT2=
EXTT3=
EXTT4=
EXTT5=
EXTT6=
EXTT7=
EXTT8=
EXTT9=
EXTT10=
EXTT11=
EXTT12=
PLAYORDER=
